<svg xmlns="http://www.w3.org/2000/svg" width="200" height="125.9" viewBox="0 0 100 62.95">
<path d="M22.719 35.159s-.314 7.36-3.3 8.83c0 0-3.4-1.809.033-8.356ZM62.072 33.2c-.594 1.577-.188 2.173-.188 2.173a10.3 10.3 0 0 0 2.234-.425 4.03 4.03 0 0 0 .211-2.5c-.389-1.41-1.62-.9-2.257.748M46.815 44.327a2.37 2.37 0 0 0 3.013.67c1.417-1.06-.314-2.971-.314-2.971ZM100 18.076v31.441a7.806 7.806 0 0 1-7.812 7.8H60.95s-3.709-.3-11.189 5.629c-7.506-5.927-11.225-5.629-11.225-5.629H8.061a7.8 7.8 0 0 1-7.811-7.8V18.076ZM29.257 46.161l3.2-15.631a8.32 8.32 0 0 0 5.773-5.679 55 55 0 0 1-11.223 1.6c-5.8.214-10.461.9-11.573 6.46a19.1 19.1 0 0 1 6.5-1.612c3.481-.162 7.2-.34 8.9-.586l-3.462 15.856a8.23 8.23 0 0 1-6.156-1.113s5.179-2.582 5.97-5.425c.773-2.836 1.613-7.31 1.613-7.31l-8.7 1.587a11 11 0 0 1 .764-1.383 10.63 10.63 0 0 0-6.546 6.054c-1.834 4.984 1.436 9.543 5.494 11 3.294 1.2 8.405.824 12.6-4.668a22 22 0 0 1-3.158.849m12.013-1.8s-2.115.815-1.885-.458c.213-1.274.866-4.11 1.062-5.46a1.88 1.88 0 0 0-1.511-2.395c-1.138-.2-1.436.33-2.1 1.232-.314.468-1.2.79-.918 1.078 0 0 .553.484.212 2-.331 1.682-.781 4.4-.919 5.129s.086 2.743 2.812 1.765a5.92 5.92 0 0 0 3.244-2.9m1.121-12.1c-1.2-.7-2.947-1.486-2.947-1.486A12.4 12.4 0 0 0 36.7 32.9c.636.3 2.631 1.518 2.631 1.518Zm12.32 1.5c-.764-.092-.952.543-3.574-.263a1.4 1.4 0 0 0-1.012 0c-.517.221-3.914 1.605-5.238 4.254a6.17 6.17 0 0 0 1.272 7.209l-3.005 2.779s1.8 2.4 6.043 1.013 3.81-5.835 3.985-6.751a40 40 0 0 1 1.817-6.723c.713-1.309.5-1.435-.281-1.5m12.2-3.286a6.25 6.25 0 0 0-6.225.883c-2.9 2.038-3.064 5.638-2.9 7.693s1.691 3.573 4.706 2.683a6.32 6.32 0 0 0 3.98-3.242c-2.6 1.216-3.892 1.318-4.765.6-.849-.687-.17-2.309-.17-2.309l6.691-1.491c.875-3.627-.7-4.474-1.315-4.823m19.468-2.784s-1.112-.129-2.216-.137a8.7 8.7 0 0 1-2.776-.391c-.747-.3-.925-.458-1.385-.161a31 31 0 0 1-3.872 2.411 4.06 4.06 0 0 0-2.868-1.169 17 17 0 0 1-1.335 1.222 1.53 1.53 0 0 0-.685.883s.652.424.339 1.587a77 77 0 0 0-.917 4.518c-.162 1-.143 2.385 1.435 2.886 1.579.484 3.939-.187 7.106-4.407a14.5 14.5 0 0 1-2.514.671c-.567 0-1.289-.161-1.144-1.087.161-.918.6-3.143.6-3.143s-.019-.5.72-1.01c.755-.524 1.139-1.061 2.286-.678s3.175 1.248 4.243.483c1.072-.8 2.759-1.867 2.98-2.478m-35.344 8.968c-.4 0-1.435-.578-1.987-.179a4.54 4.54 0 0 0-1.257 1.792c-.313.814-.34 2.615 1.062 3.193.976.373.662-1.105.935-1.887a4.94 4.94 0 0 1 1.434-2.089c.5-.382.213-.831-.187-.831m-.487-24.6 1.5.466c1.3.4 1.6.6 1.6 1.1 0 .4-.366.566-.9.566a3.6 3.6 0 0 1-2.333-1.133h-2.332v3.332h2.465v-1.163a4.88 4.88 0 0 0 3.465 1.4c2.5 0 4.265-1.466 4.265-3.565a3.51 3.51 0 0 0-2.7-3.366l-2.6-.933a.69.69 0 0 1-.5-.6c0-.4.433-.6 1.033-.6a1.71 1.71 0 0 1 1.633 1.1h2.466V5.331h-2.33V6.5a4.4 4.4 0 0 0-3.332-1.4 3.725 3.725 0 0 0-3.965 3.63 3.49 3.49 0 0 0 2.566 3.332m8.863-3.4v4.731a3.118 3.118 0 0 0 3.432 3.232 4.08 4.08 0 0 0 3.8-2.566v2.332h5.265v-2.33a.787.787 0 0 1-.833-.833v-7.9h-5.666v2.336a.884.884 0 0 1 1 1v3.3a1.166 1.166 0 1 1-2.332 0V5.331h-5.666v2.333a.884.884 0 0 1 1 1m19.959 5.4a.787.787 0 0 1-.833-.833V11.5L82 16.394h4.232v-2.333a1.48 1.48 0 0 1-1-.7L82.869 10.2l1.466-1.4a3.7 3.7 0 0 1 1.732-1.133V5.331h-6.23v2.333H81.7l-3.165 2.9V.066h-5.5V2.4a.787.787 0 0 1 .833.833v10a.787.787 0 0 1-.833.833v2.332h6.335Zm7.4-1c0-2.1 1.933-3.566 4.532-3.566a5.36 5.36 0 0 1 2.965.8V9.8c0-1.233-1.2-1.833-2.766-1.833a8.6 8.6 0 0 0-3.032.667l-.633-2.566a13.3 13.3 0 0 1 4.929-.968c3.765 0 6.164 1.833 6.164 4.832v3.132a.884.884 0 0 0 1 1v2.332H95.3v-2c-.533 1.5-1.733 2.233-4 2.233-2.7 0-4.532-1.4-4.532-3.565M91.6 12.9a1.03 1.03 0 0 0 1.066 1.066h.634a1.066 1.066 0 1 0 0-2.133h-.633A1.03 1.03 0 0 0 91.6 12.9m-52.38 1.166a.884.884 0 0 1-1-1V5.331h-5.666v2.333a.884.884 0 0 1 1 1v4.4a.884.884 0 0 1-1 1v2.332h6.664ZM0 8.43A8.133 8.133 0 0 1 8.33 0a8.114 8.114 0 0 1 8.33 8.43 8.077 8.077 0 0 1-8.33 8.43A8.1 8.1 0 0 1 0 8.43M6.664 12a1.574 1.574 0 0 0 1.666 1.661A1.574 1.574 0 0 0 10 12V4.865A1.574 1.574 0 0 0 8.33 3.2a1.574 1.574 0 0 0-1.666 1.665Zm17.893 2.066a.884.884 0 0 1-1-1v-3.3a1.166 1.166 0 0 1 2.333 0v6.631h5.665v-2.336a.883.883 0 0 1-1-1V8.33a3.118 3.118 0 0 0-3.432-3.23 4.08 4.08 0 0 0-3.8 2.566V5.331h-5.43v2.333a.884.884 0 0 1 1 1v4.4a.884.884 0 0 1-1 1v2.332h6.664Zm16.06 2.332h6.6v-2.337h-.266c-1.166 0-1.666-.5-1.666-1.666V7.8h1.966V5.331h-1.968v-3.7h-4.532v2.234a1.28 1.28 0 0 1-1.466 1.466v2.333h1.333ZM38.219.467h-4.665v3.665h4.665Z"/>
</svg>